<?xml version="1.0" encoding="UTF-8"?>
<!DOCTYPE svg PUBLIC "-//W3C//DTD SVG 1.1//EN" "http://www.w3.org/Graphics/SVG/1.1/DTD/svg11.dtd">
<!-- Creator: CorelDRAW 2021 (64-Bit) -->
<svg xmlns="http://www.w3.org/2000/svg" xml:space="preserve" width="423.333mm" height="220.133mm" version="1.1" style="shape-rendering:geometricPrecision; text-rendering:geometricPrecision; image-rendering:optimizeQuality; fill-rule:evenodd; clip-rule:evenodd"
viewBox="0 0 42333.32 22013.32"
 xmlns:xlink="http://www.w3.org/1999/xlink"
 xmlns:xodm="http://www.corel.com/coreldraw/odm/2003">
 <defs>
  <style type="text/css">
   <![CDATA[
    .fil0 {fill:#C75EFF}
    .fil1 {fill:#FAFEFF}
   ]]>
  </style>
 </defs>
 <g id="Layer_x0020_1">
  <metadata id="CorelCorpID_0Corel-Layer"/>
  <path class="fil0" d="M34989.56 10881.33c0,-1902.16 -1542.36,-3444.52 -3444.51,-3444.52 -1902.15,0 -3444.52,1542.36 -3444.52,3444.52 0,1902.15 1542.37,3444.51 3444.52,3444.51 1902.15,0 3444.51,-1542.36 3444.51,-3444.51zm-3444.51 -10405.31c5746.76,0 10405.31,4658.55 10405.31,10405.31 0,5746.75 -4658.55,10405.3 -10405.31,10405.3 -5746.76,0 -10405.31,-4658.55 -10405.31,-10405.3 0,-5746.76 4658.55,-10405.31 10405.31,-10405.31z"/>
  <g id="_2216430924496">
   <rect class="fil1" transform="matrix(-35.6913 36.2745 36.001 35.9625 4174.38 475.835)" width="118.26" height="459.39"/>
   <rect class="fil1" transform="matrix(35.5383 36.4267 36.152 -35.8083 -72.1349 16953)" width="118.26" height="459.39"/>
  </g>
 </g>
</svg>
